<?xml version="1.0" encoding="utf-8"?>
<!-- Generator: Adobe Illustrator 19.1.0, SVG Export Plug-In . SVG Version: 6.00 Build 0)  -->
<svg version="1.1" id="Capa_1" xmlns="http://www.w3.org/2000/svg" xmlns:xlink="http://www.w3.org/1999/xlink" x="0px" y="0px"
	 viewBox="-47 139.5 515.5 515.5" style="enable-background:new -47 139.5 515.5 515.5;" xml:space="preserve">
<style type="text/css">
	.st0{fill:#B53C3C;}
</style>
<g>
	<path class="st0" d="M6.1,436.3c0.2,1.6,0.5,3,0.8,5C-1.9,444.7-2.4,435.1,6.1,436.3z M17.4,439.7c2.5-1.3,5.6-3.4,3.4-6.7
		c-1.3-1.5-3.7-1.8-7.1-0.8c-1.9,0.5-4.3,1.9-5.5,3c-0.9,0.8-0.9,0.7-0.9,1.2c0.4,1.6,0.7,3.2,1,4.8C10,442,16.1,440.6,17.4,439.7z
		 M12.2,428.6c1.6-0.3,4.2-1.3,5.8-2.5c2.9-2.1,4.1-4.3,3.7-6.1c-1.2-3.8-4.8-2.6-7.4-1.5c-1.5,0.5-6.4,4.4-6.7,6.3
		c1.1,1.3,2.1,2.5,3.1,3.8C11.2,428.8,11,428.7,12.2,428.6z M6.7,425.7c-8.1,4.8-0.9,11.2,3.4,3.7C9,428.2,8.1,427.1,6.7,425.7z"/>
</g>
<g>
	<path class="st0" d="M130.1,428.3c-0.9,1.3-1.6,2.5-2.7,4.3C118.5,429.3,124.5,421.7,130.1,428.3z M136.3,438.3
		c2.8,0.7,6.5,1.2,7-2.8c0-1.9-1.6-3.8-4.8-5.4c-1.8-0.9-4.4-1.4-6.1-1.4c-1.2,0.1-1.1,0-1.4,0.3c-0.8,1.4-1.6,2.8-2.4,4.3
		C129.2,435.1,134.7,438.1,136.3,438.3z M139.8,426.5c1.5,0.8,4,1.8,6,2c3.6,0.3,5.9-0.4,6.9-2.1c1.6-3.7-1.8-5.1-4.5-6
		c-1.5-0.6-7.7-1-9.3,0.3c0,1.7-0.1,3.3-0.2,4.9C138.8,426,138.8,425.8,139.8,426.5z M137.6,420.7c-9.3-1.8-8.1,7.8,0.1,5
		C137.6,424.1,137.6,422.7,137.6,420.7z"/>
</g>
<g>
	<path class="st0" d="M86.2,412.8c-0.8,1.4-1.5,2.6-2.5,4.4C74.7,414.4,80.3,406.5,86.2,412.8z M92.9,422.5c2.8,0.5,6.5,0.9,6.8-3.1
		c-0.1-1.9-1.8-3.7-5.1-5.1c-1.8-0.8-4.5-1.2-6.2-1.1c-1.2,0.1-1.1,0-1.4,0.4c-0.7,1.5-1.4,2.9-2.2,4.4
		C85.6,419.7,91.3,422.4,92.9,422.5z M95.8,410.6c1.5,0.8,4.1,1.6,6.1,1.6c3.6,0.1,5.9-0.7,6.8-2.5c1.4-3.7-2.1-5-4.8-5.8
		c-1.5-0.6-7.8-0.6-9.2,0.7c0,1.7,0.1,3.3,0.1,4.9C94.8,410.1,94.8,410,95.8,410.6z M93.3,404.8c-9.4-1.3-7.7,8.2,0.4,5
		C93.5,408.3,93.4,406.9,93.3,404.8z"/>
</g>
<g>
	<path class="st0" d="M49.7,420.8c0.2,1.6,0.5,3,0.8,5C41.7,429.2,41.2,419.6,49.7,420.8z M61,424.2c2.5-1.3,5.6-3.4,3.4-6.7
		c-1.3-1.5-3.7-1.8-7.1-0.8c-1.9,0.5-4.3,1.9-5.5,3c-0.9,0.8-0.9,0.7-0.9,1.2c0.4,1.6,0.7,3.2,1,4.8C53.6,426.5,59.7,425.1,61,424.2
		z M55.8,413.1c1.6-0.3,4.2-1.3,5.8-2.5c2.9-2.1,4.1-4.3,3.7-6.1c-1.2-3.8-4.8-2.6-7.4-1.5c-1.5,0.5-6.4,4.4-6.7,6.3
		c1.1,1.3,2.1,2.5,3.1,3.8C54.7,413.3,54.6,413.2,55.8,413.1z M50.3,410.2c-8.1,4.8-0.9,11.2,3.4,3.7
		C52.5,412.7,51.7,411.6,50.3,410.2z"/>
</g>
<g>
	<path class="st0" d="M170,442.6c-0.9,1.3-1.6,2.5-2.7,4.3C158.4,443.6,164.4,436.1,170,442.6z M176.2,452.6c2.8,0.7,6.5,1.2,7-2.8
		c0-1.9-1.6-3.8-4.8-5.4c-1.8-0.9-4.4-1.4-6.1-1.4c-1.2,0.1-1.1,0-1.4,0.3c-0.8,1.4-1.6,2.8-2.4,4.3
		C169.1,449.5,174.6,452.4,176.2,452.6z M179.7,440.9c1.5,0.8,4,1.8,6,2c3.6,0.3,5.9-0.4,6.9-2.1c1.6-3.7-1.8-5.1-4.5-6
		c-1.5-0.6-7.7-1-9.3,0.3c0,1.7-0.1,3.3-0.2,4.9C178.7,440.4,178.7,440.2,179.7,440.9z M177.4,435c-9.3-1.8-8.1,7.8,0.1,5
		C177.5,438.5,177.5,437.1,177.4,435z"/>
</g>
</svg>
